<svg width="29" height="26" viewBox="0 0 29 26" fill="none" xmlns="http://www.w3.org/2000/svg">
  <path d="M24.2449 7.20688H27.7078V10.9387H24.2449V18.0696C24.2449 20.4967 24.3952 20.4894 24.6957 20.7738C24.9963 21.0581 25.5974 21.2003 26.4991 21.2003C26.7997 21.2358 27.0627 21.2003 27.3632 21.1647C27.6262 21.1647 27.9896 20.9634 28.1774 20.7738V24.6833C27.7078 24.884 27.1754 25.1098 26.6494 25.1098C26.0858 25.1453 25.5599 25.1453 25.0339 25.1453C24.9987 25.1453 24.4038 25.1453 24.1533 25.1098C23.5432 25.0232 22.6358 24.7011 22.0723 24.3812C21.7592 24.2035 20.9452 23.4038 20.8513 23.0484C20.5695 22.6041 20.4127 21.7334 20.4127 20.8093V10.9387H17.0942V7.20688H20.4127V0.987183H24.2449V7.20688Z" fill="#10239E" />
  <path fill-rule="evenodd" clip-rule="evenodd" d="M0.563477 10.9387H3.19339V24.7188H7.40129V10.9387H10.5196L10.5196 7.20688H7.40127L7.40129 6.88701C7.40129 6.14065 7.55157 5.43188 7.85213 5.11201C8.15269 4.79214 8.67868 4.61443 9.43008 4.61443C10.1063 4.61443 10.745 4.64997 11.3837 4.72105V0.987187L9.95606 0.987183L8.54718 0.987187C6.76256 0.987187 5.35368 1.84814 4.50835 2.67539C3.41881 3.74162 3.19339 4.96779 3.19339 6.56714L3.19337 7.20688H0.563458L0.563477 10.9387ZM15.9673 12.538H11.8721V24.7188H15.9673V12.538Z" fill="#10239E" />
  <path d="M15.9673 9.10836C15.9673 10.191 15.0775 11.0686 13.9948 11.0686C12.9122 11.0686 12.0224 10.191 12.0224 9.10835C12.0224 8.02572 12.9122 7.14807 13.9948 7.14807C15.0775 7.14807 15.9673 8.02572 15.9673 9.10836Z" fill="#40A9FF" />
</svg>
