<?xml version="1.0" encoding="UTF-8"?>
<svg viewBox="0 0 133 34" xmlns="http://www.w3.org/2000/svg">
<path d="m86.263 16.146h4.6607v3.0528h0.069c0.2072-0.477 0.5179-0.954 0.9322-1.3992 0.3797-0.4452 0.8285-0.795 1.3464-1.113 0.4833-0.318 1.0357-0.5406 1.6226-0.7314 0.5524-0.159 1.1738-0.2226 1.7952-0.2544 0.3107 0 0.656 0.0636 1.0703 0.159v4.1976c-0.2417-0.0318-0.5179-0.0636-0.8286-0.0954-0.3452-0.0318-0.656-0.0636-0.9321-0.0636-0.8977 0-1.6572 0.159-2.2786 0.4134-0.6214 0.2862-1.1393 0.6678-1.519 1.1448-0.3798 0.477-0.656 1.0176-0.7941 1.6537-0.1726 0.636-0.2417 1.3356-0.2417 2.067v7.4836h-4.9023v-16.515z" fill="#10239E"/>
<path d="m79.662 22.601c-0.2417-1.1449-0.656-2.0035-1.2429-2.6077-0.5869-0.5724-1.4845-0.8586-2.6583-0.8904-0.794 0-1.45 0.1272-1.9678 0.3816-0.5179 0.2544-0.9322 0.5406-1.2429 0.8904-0.3107 0.3816-0.5178 0.7632-0.6559 1.1448-0.1381 0.4134-0.2072 0.7632-0.2072 1.0813h7.975zm-7.975 2.862c0.0691 1.4628 0.4488 2.544 1.2084 3.18 0.725 0.6678 1.7952 0.9858 3.1761 0.9858 0.9667 0 1.8298-0.2226 2.5548-0.6678 0.6904-0.4452 1.1393-0.954 1.3119-1.4628h4.3154c-0.6904 1.9716-1.7607 3.4026-3.1761 4.2294-1.45 0.8586-3.1762 1.272-5.1786 1.272-1.4155 0-2.6928-0.1908-3.7976-0.6042-1.1393-0.4134-2.1059-1.0176-2.8654-1.7808-0.7941-0.7632-1.4155-1.6536-1.8298-2.7348-0.4143-1.0494-0.6214-2.226-0.6214-3.498 0-1.2084 0.2071-2.3533 0.6559-3.4345 0.4143-1.0494 1.0357-1.9716 1.8643-2.7348 0.794-0.7632 1.7607-1.3992 2.8655-1.8444 1.1047-0.4452 2.3476-0.6678 3.7285-0.6678 1.5191 0 2.8309 0.2862 3.9702 0.8268 1.1048 0.5406 2.0369 1.272 2.7619 2.1624 0.725 0.9222 1.2429 1.9716 1.5881 3.1164 0.3107 1.1767 0.4143 2.3851 0.3452 3.6571h-12.877z" fill="#10239E"/>
<path d="m60.762 32.661h-5.4547l-6.0793-16.515h5.1441l3.763 11.225h0.0691l3.763-11.225h4.8679l-6.0731 16.515z" fill="#10239E"/>
<path d="m44.318 22.601c-0.2416-1.1449-0.6559-2.0035-1.2428-2.6077-0.5869-0.5724-1.4845-0.8586-2.6583-0.8904-0.7941 0-1.45 0.1272-1.9679 0.3816-0.5178 0.2544-0.9321 0.5406-1.2428 0.8904-0.3107 0.3816-0.5179 0.7632-0.656 1.1448-0.1381 0.4134-0.2071 0.7632-0.2071 1.0813h7.9749zm-7.9749 2.862c0.069 1.4628 0.4488 2.544 1.2083 3.18 0.725 0.6678 1.7952 0.9858 3.1762 0.9858 0.9666 0 1.8297-0.2226 2.5547-0.6678 0.6905-0.4452 1.1393-0.954 1.3119-1.4628h4.3155c-0.6905 1.9716-1.7607 3.4026-3.1762 4.2294-1.45 0.8586-3.1762 1.272-5.1785 1.272-1.4155 0-2.6929-0.1908-3.7976-0.6042-1.1393-0.4134-2.106-1.0176-2.8655-1.7808-0.794-0.7632-1.4155-1.6536-1.8297-2.7348-0.4143-1.0494-0.6215-2.226-0.6215-3.498 0-1.2084 0.2072-2.3533 0.656-3.4345 0.4143-1.0494 1.0357-1.9716 1.8643-2.7348 0.794-0.7632 1.7607-1.3992 2.8654-1.8444 1.1048-0.4452 2.3476-0.6678 3.7286-0.6678 1.519 0 2.8309 0.2862 3.9702 0.8268 1.1047 0.5406 2.0369 1.272 2.7619 2.1624 0.725 0.9222 1.2428 1.9716 1.588 3.1164 0.3108 1.1767 0.4143 2.3851 0.3453 3.6571h-12.877z" fill="#10239E"/>
<path d="m24.857 9.1285h4.8333v23.532h-4.8333v-23.532z" fill="#10239E"/>
<path d="m17.547 17.225c-0.1038-0.5671-0.3115-1.0711-0.623-1.5437-0.3461-0.4725-0.7268-0.882-1.2113-1.26-0.4845-0.3466-1.0383-0.6301-1.6613-0.8191s-1.246-0.2835-1.9035-0.315c-1.246 0-2.2843 0.2205-3.115 0.6615-0.86525 0.4411-1.5574 1.0081-2.0766 1.7326-0.55376 0.7246-0.93447 1.5437-1.1767 2.4572-0.24227 0.9451-0.3461 1.8901-0.3461 2.8667 0 0.9451 0.10383 1.8902 0.3461 2.7722 0.24227 0.8821 0.62298 1.7011 1.1767 2.3942 0.51916 0.7245 1.2114 1.2916 2.0766 1.7326 0.83064 0.441 1.869 0.63 3.115 0.63 1.6612 0 2.9418-0.441 3.8763-1.386 0.9345-0.9136 1.5228-2.1422 1.7305-3.6543h5.2607c-0.1384 1.4176-0.5191 2.6777-1.0729 3.8118-0.5884 1.134-1.3498 2.1106-2.2843 2.8982-0.969 0.819-2.0766 1.4176-3.3225 1.8271-1.2806 0.441-2.665 0.63-4.1878 0.63-1.9036 0-3.5995-0.2835-5.1224-0.882-1.5228-0.5986-2.7688-1.4176-3.8071-2.4887-1.0383-1.0396-1.8343-2.2682-2.3881-3.6858-0.55376-1.4176-0.83064-2.9612-0.83064-4.5993 0-1.6696 0.27688-3.2132 0.83064-4.6623 0.55376-1.4491 1.3498-2.7092 2.3881-3.7803 1.0383-1.0396 2.2843-1.8901 3.8071-2.5202 1.5228-0.5985 3.2188-0.88202 5.1224-0.91352 1.3497 0 2.6303 0.18901 3.8417 0.53554 1.2113 0.37798 2.2842 0.88208 3.2533 1.5751 0.9691 0.6931 1.7651 1.5121 2.3881 2.5202s1.0037 2.1737 1.1768 3.4653h-5.2608z" fill="#10239E"/>
<path d="m127.75 11.255h4.243v4.5618h-4.243v8.7169c0 2.9668 0.184 2.958 0.553 3.3056 0.368 0.3475 1.104 0.5213 2.209 0.5213 0.368 0.0435 0.691 0 1.059-0.0434 0.322 0 0.767-0.2461 0.997-0.4779v4.779c-0.575 0.2453-1.227 0.5213-1.872 0.5213-0.69 0.0435-1.335 0.0435-1.979 0.0435-0.043 0-0.772 0-1.079-0.0435-0.747-0.1058-1.859-0.4996-2.55-0.8906-0.383-0.2172-1.381-1.1947-1.496-1.6292-0.345-0.5431-0.537-1.6075-0.537-2.7371v-12.066h-4.066v-4.5618h4.066v-7.603h4.695v7.603z" fill="#10239E"/>
<path d="m98.737 15.817h3.2227v16.845h5.155v-16.845h3.821v-4.5618h-3.821v-0.391c0-0.91239 0.184-1.7788 0.552-2.1698 0.369-0.39101 1.013-0.60824 1.934-0.60824 0.828 0 1.611 0.04345 2.393 0.13034v-4.5643l-1.749-1e-5 -1.726 1e-5c-2.187 0-3.913 1.0524-4.948 2.0637-1.335 1.3034-1.611 2.8022-1.611 4.7574l-1e-3 0.782h-3.2217v4.5618zm18.873 1.955h-5.017v14.89h5.017v-14.89z" clip-rule="evenodd" fill="#10239E" fill-rule="evenodd"/>
<path d="m117.61 13.579c0 1.3234-1.093 2.3962-2.416 2.3962-1.324 0-2.417-1.0728-2.417-2.3962 0-1.3235 1.093-2.3963 2.417-2.3963 1.323 0 2.416 1.0728 2.416 2.3963z" fill="#40A9FF"/>
</svg>