<?xml version="1.0" encoding="UTF-8"?>
<svg viewBox="0 0 35 31" xmlns="http://www.w3.org/2000/svg">
<path d="m29.752 8.2548h4.2428v4.5618h-4.2428v8.7169c0 2.9668 0.1841 2.958 0.5524 3.3056 0.3682 0.3475 1.1047 0.5213 2.2095 0.5213 0.3682 0.0435 0.6905 0 1.0587-0.0434 0.3222 0 0.7674-0.2461 0.9976-0.4779v4.779c-0.5754 0.2453-1.2277 0.5213-1.8722 0.5213-0.6905 0.0435-1.3349 0.0435-1.9793 0.0435-0.0432 0-0.772 0-1.0789-0.0435-0.7475-0.1058-1.8592-0.4996-2.5497-0.8906-0.3836-0.2172-1.381-1.1947-1.496-1.6292-0.3453-0.5431-0.5373-1.6075-0.5373-2.7371v-12.066h-4.0659v-4.5618h4.0659v-7.603h4.6952v7.603z" fill="#10239E"/>
<path d="m0.7373 12.817h3.2222v16.845h5.1556v-16.845h3.8206v-4.5618h-3.8206l3e-5 -0.39102c0-0.91235 0.18412-1.7788 0.55237-2.1698s1.0126-0.60824 1.9334-0.60824c0.8285 0 1.6111 0.04345 2.3936 0.13034v-4.5643l-1.7492-6e-6 -1.7262 6e-6c-2.1865 0-3.9127 1.0524-4.9484 2.0637-1.3349 1.3034-1.6111 2.8022-1.6111 4.7573l-3e-5 0.78203h-3.2222l2.3e-5 4.5618zm18.873 1.955h-5.0174v14.89h5.0174v-14.89z" clip-rule="evenodd" fill="#10239E" fill-rule="evenodd"/>
<path d="m19.61 10.579c0 1.3234-1.0932 2.3962-2.4166 2.3962s-2.4167-1.0728-2.4167-2.3962c0-1.3235 1.0933-2.3963 2.4167-2.3963s2.4166 1.0729 2.4166 2.3963z" fill="#40A9FF"/>
</svg>
